<svg width="975" height="100" viewBox="0 0 975 100" fill="none" xmlns="http://www.w3.org/2000/svg">
<g filter="url(#filter0_d_1710_2492)">
<path d="M925 0C952.614 0 975 22.3858 975 50C975 77.6142 952.614 100 925 100C897.426 100 875.065 77.6791 875 50.1201L537.999 50.0703C537.961 77.6522 515.591 100 488 100C460.404 100 438.03 77.6443 438 50.0557L99.999 50.0068C99.9953 77.6179 77.612 100 50 100C22.3858 100 0 77.6142 0 50C0 22.3858 22.3858 0 50 0C75.2409 0 96.1123 18.7033 99.5137 43.0068L438.479 43.0566C441.858 18.7288 462.742 0 488 0C513.263 0 534.149 18.7359 537.522 43.0703L875.47 43.1201C878.822 18.7614 899.72 0 925 0Z" fill="#87B6ED"/>
</g>
<defs>
<filter id="filter0_d_1710_2492" x="-20" y="-16" width="1015" height="140" filterUnits="userSpaceOnUse" color-interpolation-filters="sRGB">
<feFlood flood-opacity="0" result="BackgroundImageFix"/>
<feColorMatrix in="SourceAlpha" type="matrix" values="0 0 0 0 0 0 0 0 0 0 0 0 0 0 0 0 0 0 127 0" result="hardAlpha"/>
<feOffset dy="4"/>
<feGaussianBlur stdDeviation="10"/>
<feComposite in2="hardAlpha" operator="out"/>
<feColorMatrix type="matrix" values="0 0 0 0 0 0 0 0 0 0 0 0 0 0 0 0 0 0 0.25 0"/>
<feBlend mode="normal" in2="BackgroundImageFix" result="effect1_dropShadow_1710_2492"/>
<feBlend mode="normal" in="SourceGraphic" in2="effect1_dropShadow_1710_2492" result="shape"/>
</filter>
</defs>
</svg>
